<svg xmlns="http://www.w3.org/2000/svg" xmlns:svg="http://www.w3.org/2000/svg" id="Capa_1" x="0" y="0" version="1.1" viewBox="0 0 512 512" xml:space="preserve" style="enable-background:new 0 0 512 512"><metadata id="metadata61"/><g id="g6" style="fill:#d6ed17;fill-opacity:1"><g id="g4" style="fill:#d6ed17;fill-opacity:1"><polygon id="polygon2" points="339.392 258.624 512 367.744 512 144.896" style="fill:#d6ed17;fill-opacity:1"/></g></g><g id="g12" style="fill:#d6ed17;fill-opacity:1"><g id="g10" style="fill:#d6ed17;fill-opacity:1"><polygon id="polygon8" points="0 144.896 0 367.744 172.608 258.624" style="fill:#d6ed17;fill-opacity:1"/></g></g><g id="g18" style="fill:#d6ed17;fill-opacity:1"><g id="g16" style="fill:#d6ed17;fill-opacity:1"><path id="path14" d="M480,80H32C16.032,80,3.36,91.904,0.96,107.232L256,275.264l255.04-168.032C508.64,91.904,495.968,80,480,80z" style="fill:#d6ed17;fill-opacity:1"/></g></g><g id="g24" style="fill:#d6ed17;fill-opacity:1"><g id="g22" style="fill:#d6ed17;fill-opacity:1"><path id="path20" d="M310.08,277.952l-45.28,29.824c-2.688,1.76-5.728,2.624-8.8,2.624c-3.072,0-6.112-0.864-8.8-2.624l-45.28-29.856 L1.024,404.992C3.488,420.192,16.096,432,32,432h448c15.904,0,28.512-11.808,30.976-27.008L310.08,277.952z" style="fill:#d6ed17;fill-opacity:1"/></g></g></svg>